# xmcd
#
# Track frame offsets: 
#        187
#        28585
#        51140
#        70792
#        99210
#        122915
#        152205
#        175315
#        201032
#        220447
#
# Disc length: 3286 seconds
#
# Revision: 0
# Processed by: cddbd v1.5PL3 Copyright (c) Steve Scherf et al.
# Submitted via: ExactAudioCopy v0.90b4
#
DISCID=8a0cd40a
DTITLE=LEILA WHITE - TIME TO FALL IN LOVE
DYEAR=1998
DGENRE=
TTITLE0=SINNER'S LOVE AFFAIR
TTITLE1=YOU SEND ME TO HEAVEN
TTITLE2=DON'T ANSWER ME
TTITLE3=I'LL REMEMBER YOU
TTITLE4=TIME TO FALL IN LOVE
TTITLE5=MISS LONELY
TTITLE6=GONNA BEG ON YOUR KNEES
TTITLE7=YOU'RE GONNA BE MINE
TTITLE8=THAT'S THE WAY LIFE IS
TTITLE9=ANOTHER SENSE OF HARMONY
EXTD=
EXTT0=
EXTT1=
EXTT2=
EXTT3=
EXTT4=
EXTT5=
EXTT6=
EXTT7=
EXTT8=
EXTT9=
PLAYORDER=
